<?xml version="1.0" standalone="no"?>
<!DOCTYPE svg PUBLIC "-//W3C//DTD SVG 20010904//EN"
 "http://www.w3.org/TR/2001/REC-SVG-20010904/DTD/svg10.dtd">
<svg version="1.0" xmlns="http://www.w3.org/2000/svg"
 width="600.000000pt" height="600.000000pt" viewBox="0 0 600.000000 600.000000"
 preserveAspectRatio="xMidYMid meet">
<metadata>
Created by potrace 1.14, written by Peter Selinger 2001-2017
</metadata>
<g transform="translate(0.000000,600.000000) scale(0.100000,-0.100000)"
fill="#000000" stroke="none">
<path d="M0 3000 l0 -3000 3000 0 3000 0 0 3000 0 3000 -3000 0 -3000 0 0
-3000z m1620 1880 l0 -210 -74 0 c-99 0 -167 -34 -211 -105 l-30 -48 -5 -471
c-5 -464 -6 -472 -29 -535 -47 -126 -110 -216 -213 -301 l-56 -48 86 -84 c95
-92 139 -158 180 -270 l27 -73 5 -450 c5 -485 4 -474 60 -533 44 -46 71 -57
164 -62 l91 -5 3 -214 2 -214 -122 6 c-88 3 -140 11 -181 26 -250 89 -408 284
-437 544 -6 45 -10 250 -10 455 0 351 -1 375 -20 411 -12 24 -84 96 -191 192
-187 166 -209 196 -209 284 0 100 30 136 250 300 121 91 120 90 146 130 18 27
19 57 25 490 6 511 7 515 76 655 28 55 59 96 118 155 134 134 251 183 443 184
l112 1 0 -210z m2919 180 c153 -53 283 -163 355 -299 71 -136 69 -126 76 -641
l5 -465 25 -45 c19 -34 63 -72 185 -165 187 -140 208 -167 208 -271 0 -86 -23
-120 -158 -239 -155 -137 -224 -205 -244 -240 -14 -26 -17 -88 -21 -480 -5
-429 -7 -453 -28 -515 -64 -192 -223 -350 -412 -412 -46 -14 -101 -22 -188
-26 l-122 -4 2 213 3 214 82 2 c112 2 173 35 214 115 18 35 19 63 19 405 0
202 5 408 10 456 20 172 77 287 206 414 l84 82 -94 93 c-73 73 -101 109 -129
168 -70 143 -70 145 -76 655 -6 497 -4 473 -60 532 -38 40 -83 56 -171 62
l-85 6 -3 208 -2 207 117 0 c104 0 128 -4 202 -30z m-1823 -1123 c218 -71 324
-244 324 -527 l0 -90 -169 0 -168 0 -7 79 c-15 185 -68 260 -193 277 -76 10
-158 -11 -203 -52 -91 -82 -114 -199 -107 -544 5 -264 13 -312 62 -395 41 -71
92 -99 187 -104 88 -4 150 13 186 52 32 34 60 105 68 175 l7 62 170 0 170 0
-6 -92 c-12 -167 -55 -275 -144 -359 -100 -94 -224 -132 -433 -133 -207 0
-327 40 -431 143 -141 141 -199 383 -186 781 16 486 146 691 477 754 14 2 90
3 170 2 124 -3 156 -7 226 -29z m1442 -139 l3 -148 -331 0 -330 0 0 -180 0
-180 275 0 275 0 0 -145 0 -145 -275 0 -275 0 0 -200 0 -200 330 0 330 0 0
-145 0 -145 -500 0 -500 0 0 820 0 820 498 -2 497 -3 3 -147z"/>
</g>
</svg>
